<svg width="100" height="187" viewBox="0 0 100 187" fill="none" xmlns="http://www.w3.org/2000/svg">
<path d="M18.1968 64C10 83.8375 16.9026 101.088 16.9026 101.088C16.9026 101.088 24.2366 123.513 10 133M49.6579 69C45.5058 86.2932 51.3188 95.8045 48.8274 106.18C45.5057 120.015 51.3187 122.609 51.3187 133.85C51.3187 144.75 46.3361 157.195 49.6579 184M38.4706 69C38.4706 69 40.9995 84.45 34.6771 103.333C28.0675 123.075 41.8425 129.083 38.4706 172M27.8932 67C23.5445 97.5046 33.1114 89.6605 26.5885 114.936C20.0656 140.211 35.7204 148.927 26.1536 162M81.8032 64C90 83.8375 83.0974 101.088 83.0974 101.088C83.0974 101.088 75.7634 123.513 90 133M60.6503 69C60.6503 69 58.1214 84.45 64.4437 103.333C71.0534 123.075 57.2783 129.083 60.6503 172M71.2277 67C75.5763 97.5046 66.0095 89.6605 72.5324 114.936C79.0553 140.211 63.4005 148.927 72.9672 162" stroke="#22C7F5" stroke-opacity="0.5" stroke-width="5" stroke-linecap="round"/>
<path d="M18.1968 64C10 83.8375 16.9026 101.088 16.9026 101.088C16.9026 101.088 24.2366 123.513 10 133M49.6579 69C45.5058 86.2932 51.3188 95.8045 48.8274 106.18C45.5057 120.015 51.3187 122.609 51.3187 133.85C51.3187 144.75 46.3361 157.195 49.6579 184M38.4706 69C38.4706 69 40.9995 84.45 34.6771 103.333C28.0675 123.075 41.8425 129.083 38.4706 172M27.8932 67C23.5445 97.5046 33.1114 89.6605 26.5885 114.936C20.0656 140.211 35.7204 148.927 26.1536 162M81.8032 64C90 83.8375 83.0974 101.088 83.0974 101.088C83.0974 101.088 75.7634 123.513 90 133M60.6503 69C60.6503 69 58.1214 84.45 64.4437 103.333C71.0534 123.075 57.2783 129.083 60.6503 172M71.2277 67C75.5763 97.5046 66.0095 89.6605 72.5324 114.936C79.0553 140.211 63.4005 148.927 72.9672 162" stroke="#22C7F5" stroke-width="1.5" stroke-linecap="round"/>
<path d="M95.3895 71C95.3895 65 100.004 58.3963 100 50C88 25 77.6143 0 50 0C22.3857 0 12 25 0 50C0 57.5003 4.61053 65 4.61053 71C17 80 83 80 95.3895 71Z" fill="#22C7F5" fill-opacity="0.5"/>
<path d="M86.3116 64.8C86.3116 60 90.0032 54.7171 90 48C80.4 28 72.0914 8 50 8C27.9086 8 19.6 28 10 48C10 54.0002 13.6884 60 13.6884 64.8C23.6 72 76.4 72 86.3116 64.8Z" fill="#22C7F5"/>
<path d="M21 38C21 40.7614 18.7614 43 16 43C13.2386 43 11 40.7614 11 38C11 35.2386 13.2386 33 16 33C18.7614 33 21 35.2386 21 38Z" fill="white"/>
<path d="M37.4691 11.4776C35.9066 9.08753 32.682 8.39691 30.466 10.1978C25.6585 14.1048 21.6183 18.8719 18.5525 24.255C17.1393 26.7363 18.3493 29.804 20.9632 30.9535C23.5771 32.103 26.6002 30.893 28.0798 28.4507C30.2537 24.8623 32.9836 21.6411 36.1671 18.9082C38.3337 17.0482 39.0317 13.8677 37.4691 11.4776Z" fill="white"/>
</svg>
