<svg width="200" height="50" viewBox="0 0 200 50" fill="none" xmlns="http://www.w3.org/2000/svg">
<path d="M141.914 29.5781H142.969C144.987 29.5781 146.292 29.2038 146.885 28.4551C147.477 27.6999 147.773 26.541 147.773 24.9785C147.773 23.416 147.477 22.2637 146.885 21.5215C146.292 20.7728 144.987 20.3984 142.969 20.3984H141.914V29.5781Z" fill="#757575" fill-opacity="0.25"/>
<path d="M39.1236 33.7143H35.5687V22.2692H39.1236V33.7143Z" fill="#757575" fill-opacity="0.25"/>
<path d="M37.3443 20.708C36.2078 20.708 35.2856 19.7666 35.2856 18.6301C35.2856 18.0842 35.5025 17.5605 35.8886 17.1744C36.2746 16.7884 36.7983 16.5715 37.3443 16.5715C37.8903 16.5715 38.4139 16.7884 38.8 17.1744C39.186 17.5605 39.4029 18.0842 39.4029 18.6301C39.4029 19.7666 38.4807 20.708 37.3443 20.708Z" fill="#757575" fill-opacity="0.25"/>
<path d="M52.4284 33.7143H48.8774V28.1429C48.8774 26.8151 48.8506 25.1123 47.0292 25.1123C45.181 25.1123 44.8978 26.5549 44.8978 28.0472V33.7143H41.3468V22.2692H44.7562V23.8304H44.806C45.2805 22.9312 46.4399 21.9822 48.1695 21.9822C51.7665 21.9822 52.4284 24.3508 52.4284 27.4273V33.7143Z" fill="#757575" fill-opacity="0.25"/>
<path fill-rule="evenodd" clip-rule="evenodd" d="M0 5C0 2.23858 2.23858 0 5 0H195C197.761 0 200 2.23858 200 5V45C200 47.7614 197.761 50 195 50H5C2.23857 50 0 47.7614 0 45V5ZM82.2461 32C81.7904 32 81.5625 31.7559 81.5625 31.2676V18.7285C81.5625 18.2402 81.7904 17.9961 82.2461 17.9961H83.8281C84.2188 17.9961 84.4141 18.2402 84.4141 18.7285V29.5781H90.1074C90.5957 29.5781 90.8398 29.7897 90.8398 30.2129V31.3652C90.8398 31.7884 90.5957 32 90.1074 32H82.2461ZM93.5938 32C93.138 32 92.9102 31.7559 92.9102 31.2676V18.7285C92.9102 18.2402 93.138 17.9961 93.5938 17.9961H95.0781C95.5339 17.9961 95.7617 18.2402 95.7617 18.7285V31.2676C95.7617 31.7559 95.5339 32 95.0781 32H93.5938ZM99.5703 32C99.1146 32 98.8867 31.7559 98.8867 31.2676V18.7285C98.8867 18.2402 99.1146 17.9961 99.5703 17.9961H101.016C101.576 17.9961 101.999 18.224 102.285 18.6797L107.266 26.6777H107.334C107.301 26.2871 107.285 25.8965 107.285 25.5059V18.7285C107.285 18.2402 107.513 17.9961 107.969 17.9961H109.453C109.909 17.9961 110.137 18.2402 110.137 18.7285V31.2676C110.137 31.7559 109.909 32 109.453 32H108.105C107.546 32 107.122 31.7721 106.836 31.3164L101.758 23.1719H101.689C101.722 23.5625 101.738 23.9531 101.738 24.3438V31.2676C101.738 31.7559 101.51 32 101.055 32H99.5703ZM113.945 32C113.49 32 113.262 31.7559 113.262 31.2676V18.7285C113.262 18.2402 113.49 17.9961 113.945 17.9961H115.43C115.885 17.9961 116.113 18.2402 116.113 18.7285V22.6152C116.113 23.0059 116.097 23.3965 116.064 23.7871H116.133L120.879 18.5723C121.23 18.1882 121.53 17.9961 121.777 17.9961H123.74C124.502 17.9961 124.626 18.276 124.111 18.8359L119.668 23.6992L124.424 31.1602C124.782 31.7201 124.658 32 124.053 32H122.227C121.888 32 121.595 31.8079 121.348 31.4238L117.754 25.7891L116.113 27.6348V31.2676C116.113 31.7559 115.885 32 115.43 32H113.945ZM127.246 32C126.79 32 126.562 31.7559 126.562 31.2676V18.7285C126.562 18.2402 126.79 17.9961 127.246 17.9961H135.625C136.113 17.9961 136.357 18.2077 136.357 18.6309V19.7832C136.357 20.2064 136.113 20.418 135.625 20.418H129.414V23.5234H135.107C135.596 23.5234 135.84 23.735 135.84 24.1582V25.3105C135.84 25.7337 135.596 25.9453 135.107 25.9453H129.414V29.5781H135.938C136.426 29.5781 136.67 29.7897 136.67 30.2129V31.3652C136.67 31.7884 136.426 32 135.938 32H127.246ZM139.746 32C139.29 32 139.062 31.7559 139.062 31.2676V18.7285C139.062 18.2402 139.29 17.9961 139.746 17.9961H143.154C146.149 17.9961 148.174 18.6016 149.229 19.8125C150.29 21.0234 150.82 22.7454 150.82 24.9785C150.82 27.2116 150.29 28.9401 149.229 30.1641C148.174 31.388 146.149 32 143.154 32H139.746ZM153.906 32C153.451 32 153.223 31.7559 153.223 31.2676V18.7285C153.223 18.2402 153.451 17.9961 153.906 17.9961H155.391C155.846 17.9961 156.074 18.2402 156.074 18.7285V31.2676C156.074 31.7559 155.846 32 155.391 32H153.906ZM159.883 32C159.427 32 159.199 31.7559 159.199 31.2676V18.7285C159.199 18.2402 159.427 17.9961 159.883 17.9961H161.328C161.888 17.9961 162.311 18.224 162.598 18.6797L167.578 26.6777H167.646C167.614 26.2871 167.598 25.8965 167.598 25.5059V18.7285C167.598 18.2402 167.826 17.9961 168.281 17.9961H169.766C170.221 17.9961 170.449 18.2402 170.449 18.7285V31.2676C170.449 31.7559 170.221 32 169.766 32H168.418C167.858 32 167.435 31.7721 167.148 31.3164L162.07 23.1719H162.002C162.035 23.5625 162.051 23.9531 162.051 24.3438V31.2676C162.051 31.7559 161.823 32 161.367 32H159.883ZM31 16.5714C31 14.599 32.599 13 34.5714 13H52.4286C54.401 13 56 14.599 56 16.5714V34.4286C56 36.401 54.401 38 52.4286 38H34.5714C32.599 38 31 36.401 31 34.4286V16.5714Z" fill="#757575" fill-opacity="0.25"/>
</svg>
