<svg width="200" height="50" viewBox="0 0 200 50" fill="none" xmlns="http://www.w3.org/2000/svg">
<path d="M152.234 28.6172H153.66C155.04 28.6172 155.978 28.4967 156.473 28.2559C156.974 28.015 157.225 27.5267 157.225 26.791C157.225 26.1009 156.935 25.6257 156.355 25.3652C155.783 25.0983 154.884 24.9648 153.66 24.9648H152.234V28.6172Z" fill="#757575" fill-opacity="0.25"/>
<path d="M152.234 22.6602H153.514C154.354 22.6602 155.138 22.5137 155.867 22.2207C156.603 21.9277 156.971 21.472 156.971 20.8535C156.971 20.3717 156.766 20.0072 156.355 19.7598C155.952 19.5059 155.005 19.3789 153.514 19.3789H152.234V22.6602Z" fill="#757575" fill-opacity="0.25"/>
<path fill-rule="evenodd" clip-rule="evenodd" d="M58.3875 24.3813C61.3125 24.3813 62.9813 26.8 62.9813 29.5438C62.9813 35.0375 57.9625 35.875 53.5687 35.875H50.5563C46.1813 35.875 41.1562 35.0313 41.1562 29.5438C41.1562 26.8 42.825 24.3813 45.75 24.3813C46.7036 24.3813 47.6291 24.5183 48.5619 24.6564C48.7906 24.6903 49.0198 24.7242 49.25 24.7563C50.1875 24.9 51.1188 24.9563 52.0687 24.9563C53.025 24.9563 53.9562 24.9 54.8875 24.7563C55.1363 24.7222 55.3827 24.686 55.6275 24.6499C56.5512 24.514 57.4538 24.3813 58.3875 24.3813ZM46.3375 32.9875C47.95 32.9875 48.6312 30.85 48.6312 29.5438C48.6312 28.2375 47.95 26.1 46.3375 26.1C44.725 26.1 44.0438 28.2375 44.0438 29.5438C44.0438 30.85 44.725 32.9875 46.3375 32.9875ZM55.525 29.5438C55.525 28.2375 56.2062 26.1 57.8187 26.1C59.4313 26.1 60.1125 28.2375 60.1125 29.5438C60.1125 30.85 59.4313 32.9875 57.8187 32.9875C56.2062 32.9875 55.525 30.85 55.525 29.5438Z" fill="#757575" fill-opacity="0.25"/>
<path fill-rule="evenodd" clip-rule="evenodd" d="M0 5C0 2.23858 2.23858 0 5 0H195C197.761 0 200 2.23858 200 5V45C200 47.7614 197.761 50 195 50H5C2.23857 50 0 47.7614 0 45V5ZM87.8398 23.998C87.8398 21.752 88.4258 19.9681 89.5977 18.6465C90.7695 17.3249 92.4297 16.6641 94.5781 16.6641C95.8737 16.6641 96.8893 16.8301 97.625 17.1621C98.3672 17.4941 99.0182 18.0085 99.5781 18.7051C99.9167 19.1283 99.9069 19.457 99.5488 19.6914L98.4355 20.4141C98.11 20.6289 97.7617 20.5345 97.3906 20.1309C97.0846 19.7988 96.6973 19.5221 96.2285 19.3008C95.7598 19.0794 95.2422 18.9688 94.6758 18.9688C93.3086 18.9688 92.3353 19.4017 91.7559 20.2676C91.1764 21.127 90.8867 22.3704 90.8867 23.998C90.8867 25.6257 91.1764 26.8724 91.7559 27.7383C92.3353 28.5977 93.3086 29.0273 94.6758 29.0273C95.3398 29.0273 95.9128 28.9622 96.3945 28.832C96.8763 28.6953 97.332 28.4512 97.7617 28.0996V26.3516H95.6426C95.1543 26.3516 94.9102 26.14 94.9102 25.7168V24.5645C94.9102 24.1413 95.1543 23.9297 95.6426 23.9297H99.8809C100.369 23.9297 100.613 24.1413 100.613 24.5645V29.5254C99.7018 30.196 98.7806 30.6647 97.8496 30.9316C96.9251 31.1986 95.8346 31.332 94.5781 31.332C92.4622 31.332 90.8086 30.6712 89.6172 29.3496C88.4323 28.028 87.8398 26.2441 87.8398 23.998ZM103.953 31C103.497 31 103.27 30.7559 103.27 30.2676V17.7285C103.27 17.2402 103.497 16.9961 103.953 16.9961H105.438C105.893 16.9961 106.121 17.2402 106.121 17.7285V30.2676C106.121 30.7559 105.893 31 105.438 31H103.953ZM108.748 19.4961C108.26 19.4961 108.016 19.2845 108.016 18.8613V17.6309C108.016 17.2077 108.26 16.9961 108.748 16.9961H118.787C119.275 16.9961 119.52 17.2077 119.52 17.6309V18.8613C119.52 19.2845 119.275 19.4961 118.787 19.4961H115.193V30.4629C115.193 30.821 115.031 31 114.705 31H112.83C112.505 31 112.342 30.821 112.342 30.4629V19.4961H108.748ZM122.098 31C121.642 31 121.414 30.7559 121.414 30.2676V17.7285C121.414 17.2402 121.642 16.9961 122.098 16.9961H123.582C124.038 16.9961 124.266 17.2402 124.266 17.7285V22.5039H129.52V17.7285C129.52 17.2402 129.747 16.9961 130.203 16.9961H131.688C132.143 16.9961 132.371 17.2402 132.371 17.7285V30.2676C132.371 30.7559 132.143 31 131.688 31H130.203C129.747 31 129.52 30.7559 129.52 30.2676V24.9258H124.266V30.2676C124.266 30.7559 124.038 31 123.582 31H122.098ZM135.496 25.1699V17.5332C135.496 17.1751 135.724 16.9961 136.18 16.9961H137.664C138.12 16.9961 138.348 17.1751 138.348 17.5332V25.0723C138.348 26.8301 138.605 27.9303 139.119 28.373C139.64 28.8092 140.226 29.0273 140.877 29.0273C141.528 29.0273 142.111 28.8092 142.625 28.373C143.146 27.9303 143.406 26.8301 143.406 25.0723V17.5332C143.406 17.1751 143.634 16.9961 144.09 16.9961H145.574C146.03 16.9961 146.258 17.1751 146.258 17.5332V25.1699C146.258 27.4486 145.776 29.0469 144.812 29.9648C143.849 30.8763 142.537 31.332 140.877 31.332C139.217 31.332 137.905 30.8763 136.941 29.9648C135.978 29.0469 135.496 27.4486 135.496 25.1699ZM150.164 31C149.643 31 149.383 30.7559 149.383 30.2676V17.7285C149.383 17.2402 149.643 16.9961 150.164 16.9961H153.484C155.984 16.9961 157.671 17.3053 158.543 17.9238C159.422 18.5358 159.861 19.4798 159.861 20.7559C159.861 21.6478 159.533 22.3379 158.875 22.8262C158.224 23.3145 157.592 23.5977 156.98 23.6758V23.7051C157.573 23.7441 158.27 24.0436 159.07 24.6035C159.871 25.1634 160.271 25.9544 160.271 26.9766C160.271 28.1745 159.783 29.1445 158.807 29.8867C157.83 30.6289 156.219 31 153.973 31H150.164ZM65.9062 32.325C66.8 30.4938 67 28.3813 67 26.3875C67 23.7688 66.2812 21.275 64.5625 19.25C64.8812 18.2812 65.0437 17.2625 65.0437 16.2375C65.0437 14.8938 64.7438 14.2188 64.1312 13C61.3312 13 59.5187 13.5312 57.3937 15.2C55.7562 14.8062 54.0563 14.625 52.3688 14.625C50.5 14.625 48.6375 14.8188 46.825 15.25C44.6688 13.5625 42.8563 13 40.025 13C39.4188 14.2188 39.1125 14.8938 39.1125 16.2375C39.1125 17.2625 39.2687 18.3 39.5938 19.2875C37.8688 21.2938 37 23.7688 37 26.3875C37 28.3813 37.35 30.5125 38.2625 32.325C40.6458 37.0131 47.186 37.0057 51.8992 37.0004C52.0557 37.0002 52.2102 37 52.3625 37C52.4663 37 52.571 37.0001 52.6766 37.0001C57.3129 37.0026 63.5902 37.0059 65.9062 32.325Z" fill="#757575" fill-opacity="0.25"/>
</svg>
