<svg width="200" height="50" viewBox="0 0 200 50" fill="none" xmlns="http://www.w3.org/2000/svg">
<path d="M129.692 25.2773H132.836L131.635 22.1719C131.492 21.8073 131.404 21.5436 131.372 21.3809C131.346 21.2116 131.316 20.9642 131.284 20.6387H131.245C131.212 20.9642 131.18 21.2116 131.147 21.3809C131.121 21.5436 131.036 21.8073 130.893 22.1719L129.692 25.2773Z" fill="#757575" fill-opacity="0.25"/>
<path d="M71.867 15.7229C71.5332 15.3942 71.0925 15.2218 70.638 15.204C70.1834 15.1862 69.7154 15.3234 69.3255 15.6114H69.3243L67.844 16.7054C67.8458 16.7257 67.8466 16.7461 67.8464 16.7665V23.0223L72.6547 19.4689V17.6141C72.6547 16.8799 72.3598 16.2162 71.8811 15.737C71.8867 15.7426 71.8784 15.7341 71.867 15.7229Z" fill="#757575" fill-opacity="0.25"/>
<path d="M49.5414 15.6149C49.1513 15.3262 48.6817 15.1897 48.2266 15.2075C47.7716 15.2253 47.3313 15.3972 46.9975 15.7264C46.5102 16.2068 46.2087 16.8714 46.2087 17.6141V19.4689L51.017 23.0223V16.7665C51.0169 16.7469 51.0177 16.7273 51.0194 16.7078L49.5414 15.6149Z" fill="#757575" fill-opacity="0.25"/>
<path d="M66.6443 23.911V17.5906L59.7886 22.6596C59.6852 22.7358 59.5602 22.777 59.4317 22.777C59.3033 22.777 59.1782 22.7358 59.0748 22.6596L52.2191 17.5918V23.911L59.4317 29.2417L66.6443 23.911Z" fill="#757575" fill-opacity="0.25"/>
<path d="M51.017 24.5179L46.2087 20.9633V33.8963C46.2087 34.4017 46.6049 34.7979 47.1102 34.7979H51.017V24.5179Z" fill="#757575" fill-opacity="0.25"/>
<path d="M72.6547 33.8963V20.9633L67.8464 24.5179V34.7979H71.7532C72.2585 34.7979 72.6547 34.4017 72.6547 33.8963Z" fill="#757575" fill-opacity="0.25"/>
<path fill-rule="evenodd" clip-rule="evenodd" d="M0 5C0 2.23858 2.23858 0 5 0H195C197.761 0 200 2.23858 200 5V45C200 47.7614 197.761 50 195 50H5C2.23857 50 0 47.7614 0 45V5ZM96.1079 31C95.6522 31 95.4243 30.7559 95.4243 30.2676V17.7285C95.4243 17.2402 95.6522 16.9961 96.1079 16.9961H104.487C104.975 16.9961 105.219 17.2077 105.219 17.6309V18.7832C105.219 19.2064 104.975 19.418 104.487 19.418H98.2759V22.5234H103.969C104.458 22.5234 104.702 22.735 104.702 23.1582V24.3105C104.702 24.7337 104.458 24.9453 103.969 24.9453H98.2759V28.5781H104.799C105.288 28.5781 105.532 28.7897 105.532 29.2129V30.3652C105.532 30.7884 105.288 31 104.799 31H96.1079ZM108.608 31C108.152 31 107.924 30.7559 107.924 30.2676V17.7285C107.924 17.2402 108.152 16.9961 108.608 16.9961H111.44C111.818 16.9961 112.088 17.2565 112.25 17.7773L114.897 26.3418C115.014 26.7129 115.096 27.0189 115.141 27.2598C115.187 27.4941 115.226 27.7741 115.258 28.0996H115.317C115.349 27.7741 115.389 27.4941 115.434 27.2598C115.48 27.0189 115.561 26.7129 115.678 26.3418L118.325 17.7773C118.487 17.2565 118.758 16.9961 119.135 16.9961H121.967C122.423 16.9961 122.651 17.2402 122.651 17.7285V30.2676C122.651 30.7559 122.423 31 121.967 31H120.483C120.027 31 119.799 30.7559 119.799 30.2676V22.2012C119.799 21.8105 119.816 21.4199 119.848 21.0293H119.78L116.958 30.209C116.795 30.7363 116.515 31 116.118 31H114.458C114.06 31 113.78 30.7363 113.618 30.209L110.795 21.0293H110.727C110.76 21.4199 110.776 21.8105 110.776 22.2012V30.2676C110.776 30.7559 110.548 31 110.092 31H108.608ZM125.336 31C124.868 31 124.715 30.7852 124.877 30.3555L129.663 17.7871C129.864 17.2598 130.17 16.9961 130.581 16.9961H131.948C132.358 16.9961 132.664 17.2598 132.866 17.7871L137.651 30.3555C137.814 30.7852 137.661 31 137.192 31H135.639C135.209 31 134.91 30.7754 134.741 30.3262L133.745 27.6992H128.784L127.788 30.3262C127.618 30.7754 127.319 31 126.889 31H125.336ZM140.073 31C139.617 31 139.389 30.7559 139.389 30.2676V17.7285C139.389 17.2402 139.617 16.9961 140.073 16.9961H141.557C142.013 16.9961 142.241 17.2402 142.241 17.7285V30.2676C142.241 30.7559 142.013 31 141.557 31H140.073ZM146.049 31C145.594 31 145.366 30.7559 145.366 30.2676V17.7285C145.366 17.2402 145.594 16.9961 146.049 16.9961H147.631C148.022 16.9961 148.217 17.2402 148.217 17.7285V28.5781H153.911C154.399 28.5781 154.643 28.7897 154.643 29.2129V30.3652C154.643 30.7884 154.399 31 153.911 31H146.049ZM68.6106 14.644C69.2256 14.1897 69.9718 13.971 70.7037 14.0031C71.4356 14.0351 72.153 14.3176 72.7099 14.8659L72.7133 14.8693C72.7054 14.8614 72.7122 14.867 72.7322 14.887C73.4304 15.5859 73.8568 16.5571 73.8568 17.6141V19.6872C73.8636 19.739 73.8636 19.7915 73.8568 19.8433V33.8963C73.8568 35.0511 72.9079 36 71.7532 36H67.2453C67.0859 36 66.9331 35.9367 66.8203 35.8239C66.7076 35.7112 66.6443 35.5584 66.6443 35.399V25.4054L59.7886 30.4732C59.6852 30.5494 59.5602 30.5906 59.4317 30.5906C59.3033 30.5906 59.1782 30.5494 59.0748 30.4732L52.2191 25.4054V35.399C52.2191 35.5584 52.1558 35.7112 52.0431 35.8239C51.9304 35.9367 51.7775 36 51.6181 36H47.1102C45.9555 36 45.0066 35.0511 45.0066 33.8963V19.8551C44.9978 19.7963 44.9978 19.7366 45.0066 19.6778V17.6141C45.0066 16.544 45.4459 15.5682 46.1535 14.8706C46.7105 14.3211 47.4282 14.0375 48.1609 14.0054C48.8936 13.9734 49.6409 14.1933 50.2563 14.6487L51.7378 15.7452H51.5876C51.7327 15.7534 51.8699 15.8138 51.9738 15.9154L59.4317 21.4281L68.6106 14.644Z" fill="#757575" fill-opacity="0.25"/>
</svg>
