<svg width="16" height="16" viewBox="0 0 16 16" fill="none" xmlns="http://www.w3.org/2000/svg">
<path d="M5.97535 5.97543C5.43848 6.51235 5.13673 7.24062 5.13673 8.00002C5.13673 8.75942 5.43848 9.48769 5.97535 10.0246C6.51234 10.5616 7.24061 10.8632 8.00001 10.8632C8.75941 10.8632 9.48768 10.5616 10.0247 10.0246C10.5615 9.48769 10.8633 8.75942 10.8633 8.00002C10.8633 7.24062 10.5615 6.51235 10.0247 5.97543C9.48768 5.43844 8.75941 5.1368 8.00001 5.1368C7.24061 5.1368 6.51234 5.43844 5.97535 5.97543Z" fill="url(#paint0_linear_209_361)"/>
<path fill-rule="evenodd" clip-rule="evenodd" d="M11.3311 0.537866C11.2822 0.478723 11.2192 0.431116 11.1465 0.400537C10.9974 0.337915 10.8274 0.355798 10.6932 0.448266L8.00001 2.30636L5.30677 0.448266C5.17261 0.355798 5.00257 0.337915 4.8534 0.400537C4.77222 0.434656 4.70338 0.490015 4.65272 0.558923C4.61036 0.616479 4.5807 0.683496 4.56715 0.755456L3.97364 3.9736L0.7555 4.56716C0.597419 4.59695 0.463142 4.70431 0.40052 4.85348C0.337898 5.00259 0.355842 5.17257 0.448249 5.30679L2.3064 8.00002L0.448249 10.6933C0.355842 10.8275 0.337898 10.9975 0.40052 11.1466C0.431037 11.2194 0.478767 11.2823 0.537849 11.331C0.599861 11.3821 0.674568 11.4176 0.7555 11.4329L3.97364 12.0265L4.56715 15.2446C4.59693 15.4027 4.70435 15.5369 4.8534 15.5995C5.00257 15.6621 5.17261 15.6442 5.30677 15.5518L8.00001 13.6937L10.6932 15.5518C10.8274 15.6442 10.9974 15.6621 11.1465 15.5995C11.2957 15.5369 11.4031 15.4027 11.4329 15.2446L12.0264 12.0265L15.2446 11.4329C15.4026 11.4031 15.5369 11.2957 15.5994 11.1466C15.6621 10.9975 15.6443 10.8275 15.5518 10.6933L13.6936 8.00002L15.5518 5.3038C15.5896 5.24886 15.615 5.18795 15.6274 5.1249C15.6411 5.05587 15.6392 4.98434 15.6213 4.91531L15.6174 4.90176L15.6128 4.88601L15.6062 4.86764L15.5994 4.85049C15.5369 4.70138 15.4026 4.59396 15.2446 4.56417L12.0264 3.9736L11.4329 0.755456C11.4177 0.674524 11.3821 0.599878 11.3311 0.537866ZM10.6995 5.30056C11.4155 6.0165 11.8176 6.98751 11.8176 8.00002C11.8176 9.01254 11.4155 9.98354 10.6995 10.6995C9.98353 11.4154 9.01246 11.8177 8.00001 11.8177C6.98756 11.8177 6.01649 11.4154 5.30054 10.6995C4.5846 9.98354 4.18238 9.01254 4.18238 8.00002C4.18238 6.98751 4.5846 6.0165 5.30054 5.30056C6.01649 4.58462 6.98756 4.1824 8.00001 4.1824C9.01246 4.1824 9.98353 4.58462 10.6995 5.30056Z" fill="url(#paint1_linear_209_361)"/>
<defs>
<linearGradient id="paint0_linear_209_361" x1="8" y1="-4" x2="8" y2="20" gradientUnits="userSpaceOnUse">
<stop stop-color="#22C7F5"/>
<stop offset="1" stop-color="#1828B7"/>
</linearGradient>
<linearGradient id="paint1_linear_209_361" x1="8" y1="-4" x2="8" y2="20" gradientUnits="userSpaceOnUse">
<stop stop-color="#22C7F5"/>
<stop offset="1" stop-color="#1828B7"/>
</linearGradient>
</defs>
</svg>
