<svg width="31" height="24" viewBox="0 0 31 24" fill="none" xmlns="http://www.w3.org/2000/svg">
<path d="M26.7037 1.00308C25.9718 0.971015 25.2256 1.18974 24.6106 1.64404L15.4317 8.42813L7.97379 2.9154C7.86985 2.81384 7.73265 2.75337 7.58757 2.74518H7.73783L6.25634 1.64873C5.64089 1.19331 4.89363 0.973354 4.16089 1.00543C3.42816 1.0375 2.71051 1.32111 2.15349 1.87061C1.4459 2.56823 1.00657 3.544 1.00657 4.61406V6.67781C0.99781 6.73657 0.99781 6.79631 1.00657 6.85507V20.8963C1.00657 22.0511 1.95551 23 3.11024 23H7.61809C7.77749 23 7.93036 22.9367 8.04308 22.8239C8.15579 22.7112 8.21912 22.5584 8.21914 22.399V12.4054L15.0748 17.4732C15.1782 17.5494 15.3033 17.5906 15.4317 17.5906C15.5601 17.5906 15.6852 17.5494 15.7886 17.4732L22.6443 12.4054V22.399C22.6443 22.5584 22.7076 22.7112 22.8203 22.8239C22.933 22.9367 23.0859 23 23.2453 23H27.7532C28.9079 23 29.8568 22.0511 29.8568 20.8963V6.84333C29.8636 6.79151 29.8636 6.73902 29.8568 6.6872V4.61406C29.8568 3.55714 29.4304 2.5859 28.7322 1.88704C28.712 1.86686 28.7053 1.86128 28.7134 1.86943L28.7099 1.86591C28.153 1.31763 27.4356 1.03514 26.7037 1.00308ZM26.638 2.204C27.0925 2.22182 27.5332 2.39423 27.867 2.72287C27.8784 2.73409 27.8867 2.74257 27.8811 2.73696C28.3598 3.21615 28.6547 3.87985 28.6547 4.61406V6.46885L23.8464 10.0223V3.76649C23.8466 3.74611 23.8458 3.72574 23.844 3.70544L25.3243 2.61135H25.3255C25.7154 2.32336 26.1834 2.18618 26.638 2.204ZM4.22663 2.20752C4.68172 2.18971 5.15133 2.3262 5.54142 2.61487L7.01939 3.70779C7.01765 3.72731 7.01687 3.7469 7.01704 3.76649V10.0223L2.20866 6.46885V4.61406C2.20866 3.87136 2.51024 3.20683 2.99754 2.72639C3.33127 2.39716 3.77155 2.22534 4.22663 2.20752ZM22.6443 4.59058V10.911L15.4317 16.2417L8.21914 10.911V4.59175L15.0748 9.65957C15.1782 9.73582 15.3033 9.77697 15.4317 9.77697C15.5601 9.77697 15.6852 9.73582 15.7886 9.65957L22.6443 4.59058ZM2.20866 7.96325L7.01704 11.5179V21.7979H3.11024C2.60487 21.7979 2.20866 21.4017 2.20866 20.8963V7.96325ZM28.6547 7.96325V20.8963C28.6547 21.4017 28.2585 21.7979 27.7532 21.7979H23.8464V11.5179L28.6547 7.96325Z" fill="white" stroke="white"/>
</svg>
