<svg width="40" height="22" viewBox="0 0 40 22" fill="none" xmlns="http://www.w3.org/2000/svg">
<path d="M20 0C8.78581 0 0 4.75911 0 10.8333C0 16.9076 8.78581 21.6667 20 21.6667C31.2142 21.6667 40 16.9076 40 10.8333C40 4.75911 31.2142 0 20 0ZM17.9232 3.33333H20.1074L19.4141 6.66667H21.3639C22.6009 6.66667 23.431 6.83919 23.903 7.27214C24.3652 7.69857 24.5052 8.39844 24.3197 9.35221L23.4538 13.3333H21.2337L22.0312 9.65169C22.1289 9.14714 22.0898 8.79557 21.9206 8.61003C21.7513 8.42448 21.3802 8.33333 20.8236 8.33333H19.0755L18.0208 13.3333H15.8333L17.9232 3.33333ZM8.33333 6.66667H12.7767C14.8958 6.66667 16.1784 8.08594 15.6771 10.2051C15.0944 12.666 13.5319 13.3333 10.6608 13.3333H9.28711L8.85091 15.8333H6.64388L8.33333 6.66667ZM25.8333 6.66667H30.2767C32.3958 6.66667 33.6784 8.08594 33.1771 10.2051C32.5944 12.666 31.0319 13.3333 28.1608 13.3333H26.7871L26.3509 15.8333H24.1439L25.8333 6.66667ZM10.2246 8.33333L9.59635 11.6667H11.0221C12.2559 11.6667 13.4017 11.5267 13.5938 9.6875C13.6654 8.97461 13.3691 8.33333 11.9434 8.33333H10.2246ZM27.7246 8.33333L27.0964 11.6667H28.5221C29.7559 11.6667 30.9017 11.5267 31.0938 9.6875C31.1654 8.97461 30.8691 8.33333 29.4434 8.33333H27.7246Z" fill="black"/>
</svg>
