<svg width="12" height="14" viewBox="0 0 12 14" fill="none" xmlns="http://www.w3.org/2000/svg">
<path d="M0.54541 6.8158C0.54541 3.30292 3.38525 0.454529 6.89258 0.454529V0.457397C7.07422 0.457397 7.25317 0.465881 7.43213 0.480103C7.63086 0.497131 7.79565 0.641968 7.83813 0.835083C7.87622 1.00671 7.81079 1.18286 7.67407 1.28967C7.65698 1.30304 7.63867 1.31531 7.61938 1.32635C6.10596 2.18402 5.0835 3.81122 5.0835 5.67987C5.0835 8.44019 7.31567 10.678 10.0674 10.678C10.3599 10.678 10.644 10.6524 10.9221 10.6041C11.1182 10.5701 11.3142 10.6694 11.405 10.8455C11.4336 10.9011 11.4495 10.9607 11.4534 11.0206C11.4619 11.1503 11.4141 11.2814 11.3169 11.3766C10.1726 12.4898 8.61353 13.177 6.89258 13.177C3.38525 13.177 0.54541 10.3287 0.54541 6.8158Z" fill="url(#paint0_linear_209_360)"/>
<defs>
<linearGradient id="paint0_linear_209_360" x1="6" y1="-5" x2="6" y2="19" gradientUnits="userSpaceOnUse">
<stop stop-color="#22C7F5"/>
<stop offset="1" stop-color="#1828B7"/>
</linearGradient>
</defs>
</svg>
