<svg width="21" height="21" viewBox="0 0 21 21" fill="none" xmlns="http://www.w3.org/2000/svg">
<path d="M4.74829 20.8572H0.482422V7.12299H4.74829V20.8572Z" fill="white"/>
<path d="M2.61304 5.24951C1.24927 5.24951 0.142578 4.11993 0.142578 2.75616C0.142578 2.10095 0.403076 1.4726 0.866211 1.00934C1.32959 0.546021 1.95801 0.285767 2.61304 0.285767C3.26831 0.285767 3.89673 0.546021 4.35986 1.00934C4.82324 1.4726 5.0835 2.10095 5.0835 2.75616C5.0835 4.11993 3.97681 5.24951 2.61304 5.24951Z" fill="white"/>
<path d="M20.7141 20.8572H16.4529V14.1715C16.4529 12.5781 16.4207 10.5347 14.2351 10.5347C12.0171 10.5347 11.6775 12.2659 11.6775 14.0567V20.8572H7.41626V7.12299H11.5076V8.99646H11.5671C12.1365 7.91742 13.5278 6.77863 15.6035 6.77863C19.9197 6.77863 20.7141 9.62097 20.7141 13.3128V20.8572Z" fill="white"/>
</svg>
