<svg width="24" height="24" viewBox="0 0 24 24" fill="none" xmlns="http://www.w3.org/2000/svg">
<path fill-rule="evenodd" clip-rule="evenodd" d="M14.6995 9.30053C15.4154 10.0165 15.8176 10.9875 15.8176 12C15.8176 13.0125 15.4154 13.9835 14.6995 14.6995C13.9835 15.4154 13.0125 15.8176 12 15.8176C10.9875 15.8176 10.0165 15.4154 9.30053 14.6995C8.58458 13.9835 8.18237 13.0125 8.18237 12C8.18237 10.9875 8.58458 10.0165 9.30053 9.30053C10.0165 8.58458 10.9875 8.18237 12 8.18237C13.0125 8.18237 13.9835 8.58458 14.6995 9.30053ZM9.9754 9.9754C9.43844 10.5124 9.13678 11.2406 9.13678 12C9.13678 12.7594 9.43844 13.4876 9.9754 14.0246C10.5124 14.5616 11.2406 14.8632 12 14.8632C12.7594 14.8632 13.4876 14.5616 14.0246 14.0246C14.5616 13.4876 14.8632 12.7594 14.8632 12C14.8632 11.2406 14.5616 10.5124 14.0246 9.9754C13.4876 9.43844 12.7594 9.13678 12 9.13678C11.2406 9.13678 10.5124 9.43844 9.9754 9.9754Z" fill="url(#paint0_linear_121_569)"/>
<path fill-rule="evenodd" clip-rule="evenodd" d="M12 24C18.6274 24 24 18.6274 24 12C24 5.37258 18.6274 0 12 0C5.37258 0 0 5.37258 0 12C0 18.6274 5.37258 24 12 24ZM15.4329 4.75545C15.4031 4.59738 15.2957 4.46316 15.1466 4.40053C14.9974 4.3379 14.8274 4.35579 14.6932 4.44825L12 6.30636L9.30678 4.44825C9.17257 4.35579 9.00256 4.3379 8.85344 4.40053C8.70431 4.46316 8.59694 4.59738 8.56712 4.75545L7.97359 7.97359L4.75545 8.56712C4.59738 8.59694 4.46316 8.70431 4.40053 8.85344C4.3379 9.00256 4.35579 9.17257 4.44825 9.30678L6.30636 12L4.44825 14.6932C4.35579 14.8274 4.3379 14.9974 4.40053 15.1466C4.46316 15.2957 4.59738 15.4031 4.75545 15.4329L7.97359 16.0264L8.56712 19.2445C8.59694 19.4026 8.70431 19.5368 8.85344 19.5995C9.00256 19.6621 9.17257 19.6442 9.30678 19.5518L12 17.6936L14.6932 19.5518C14.8274 19.6442 14.9974 19.6621 15.1466 19.5995C15.2957 19.5368 15.4031 19.4026 15.4329 19.2445L16.0264 16.0264L19.2445 15.4329C19.4026 15.4031 19.5368 15.2957 19.5995 15.1466C19.6621 14.9974 19.6442 14.8274 19.5518 14.6932L17.6936 12L19.5518 9.3038C19.6442 9.16959 19.6621 8.99958 19.5995 8.85046C19.5368 8.70133 19.4026 8.59396 19.2445 8.56413L16.0264 7.97359L15.4329 4.75545Z" fill="url(#paint1_linear_121_569)"/>
<defs>
<linearGradient id="paint0_linear_121_569" x1="12" y1="0" x2="12" y2="24" gradientUnits="userSpaceOnUse">
<stop stop-color="#22C7F5"/>
<stop offset="1" stop-color="#1828B7"/>
</linearGradient>
<linearGradient id="paint1_linear_121_569" x1="12" y1="0" x2="12" y2="24" gradientUnits="userSpaceOnUse">
<stop stop-color="#22C7F5"/>
<stop offset="1" stop-color="#1828B7"/>
</linearGradient>
</defs>
</svg>
