<svg width="28" height="28" viewBox="0 0 28 28" fill="none" xmlns="http://www.w3.org/2000/svg">
<path d="M27.0757 12.2539L15.746 0.92417C15.2656 0.441358 14.6328 0.199951 14 0.199951C13.3671 0.199951 12.7343 0.441358 12.2539 0.92417L10.0132 3.16479L12.7859 5.93745C13.707 5.39604 14.907 5.51323 15.6968 6.30308C16.4867 7.09292 16.6015 8.29292 16.0601 9.21167L18.7859 11.9375C19.707 11.396 20.907 11.5132 21.6968 12.3031C22.6343 13.2406 22.6343 14.7593 21.6968 15.6968C20.7593 16.6343 19.2406 16.6343 18.3031 15.6968C17.5132 14.907 17.396 13.707 17.9375 12.7859L15.2117 10.0601C15.0171 10.175 14.8132 10.2593 14.6 10.3132V17.6843C15.6335 17.9515 16.4 18.882 16.4 20C16.4 21.3265 15.3265 22.4 14 22.4C12.6734 22.4 11.6 21.3265 11.6 20C11.6 18.882 12.3664 17.9515 13.4 17.6843V10.3132C12.9992 10.2101 12.6171 10.0109 12.3031 9.69683C11.5132 8.90698 11.3984 7.70698 11.9398 6.78823L9.1648 4.01323L0.92417 12.2539C-0.0414551 13.2171 -0.0414551 14.7828 0.92417 15.746L12.2539 27.0757C12.7343 27.5585 13.3671 27.8 14 27.8C14.6328 27.8 15.2656 27.5585 15.746 27.0757L27.0757 15.746C28.0414 14.7828 28.0414 13.2171 27.0757 12.2539Z" fill="black"/>
</svg>
