<svg width="27" height="15" viewBox="0 0 27 15" fill="none" xmlns="http://www.w3.org/2000/svg">
<path d="M7.84 14.28C7.18667 14.28 6.52667 14.1867 5.86 14C5.19333 13.8 4.55333 13.5067 3.94 13.12C3.32667 12.72 2.78 12.2333 2.3 11.66C1.83333 11.0733 1.46 10.4 1.18 9.64C0.9 8.86667 0.76 8.01333 0.76 7.08C0.76 6.16 0.9 5.33333 1.18 4.6C1.46 3.85333 1.83333 3.2 2.3 2.64C2.78 2.08 3.32 1.61333 3.92 1.24C4.53333 0.866666 5.17333 0.586667 5.84 0.4C6.52 0.199999 7.19333 0.0933324 7.86 0.0799992C8.54 0.0799992 9.12667 0.153332 9.62 0.299999C10.1133 0.446666 10.5133 0.606666 10.82 0.78C11.1267 0.939999 11.3333 1.05333 11.44 1.12C11.6533 1.25333 11.8533 1.40667 12.04 1.58C12.24 1.74 12.3467 1.94 12.36 2.18C12.3733 2.34 12.3533 2.48667 12.3 2.62C12.2467 2.74 12.1733 2.86667 12.08 3C11.92 3.22667 11.76 3.39333 11.6 3.5C11.44 3.60667 11.28 3.66 11.12 3.66C10.9733 3.66 10.8333 3.62 10.7 3.54C10.58 3.46 10.4267 3.36 10.24 3.24C10.16 3.18667 10.0133 3.10667 9.8 3C9.6 2.88 9.32667 2.77333 8.98 2.68C8.64667 2.58667 8.24 2.54 7.76 2.54C7.18667 2.54 6.62667 2.64 6.08 2.84C5.53333 3.04 5.04 3.34 4.6 3.74C4.17333 4.12667 3.83333 4.61333 3.58 5.2C3.32667 5.77333 3.2 6.43333 3.2 7.18C3.2 7.92667 3.32667 8.59333 3.58 9.18C3.83333 9.75333 4.17333 10.24 4.6 10.64C5.04 11.0267 5.53333 11.32 6.08 11.52C6.62667 11.72 7.18667 11.82 7.76 11.82C8.21333 11.82 8.6 11.78 8.92 11.7C9.25333 11.6067 9.53333 11.5 9.76 11.38C10 11.2467 10.18 11.1467 10.3 11.08C10.4467 10.9867 10.5867 10.9 10.72 10.82C10.8533 10.74 10.9933 10.7 11.14 10.7C11.3 10.7 11.4533 10.7533 11.6 10.86C11.76 10.9667 11.9133 11.14 12.06 11.38C12.1533 11.5267 12.2267 11.6667 12.28 11.8C12.3333 11.9333 12.3533 12.0733 12.34 12.22C12.3267 12.46 12.22 12.6667 12.02 12.84C11.8333 13 11.6333 13.14 11.42 13.26C11.3133 13.3267 11.1067 13.4467 10.8 13.62C10.5067 13.78 10.1133 13.9267 9.62 14.06C9.12667 14.2067 8.53333 14.28 7.84 14.28ZM20.3855 14.18C20.0788 14.18 19.8188 14.1267 19.6055 14.02C19.4055 13.9267 19.2521 13.76 19.1455 13.52L14.1855 1.82C14.0121 1.40667 13.9788 1.1 14.0855 0.899999C14.1921 0.7 14.4388 0.499999 14.8255 0.299999C15.0921 0.153332 15.3255 0.0799992 15.5255 0.0799992C15.7255 0.066666 15.8921 0.126666 16.0255 0.259999C16.1721 0.379999 16.2988 0.58 16.4055 0.86L20.3655 10.78L24.2855 0.96C24.4055 0.693333 24.5321 0.486666 24.6655 0.339999C24.7988 0.179999 24.9721 0.099999 25.1855 0.099999C25.3988 0.0866658 25.6521 0.159999 25.9455 0.32C26.4121 0.546666 26.6655 0.779999 26.7055 1.02C26.7455 1.26 26.6788 1.56667 26.5055 1.94L21.5855 13.52C21.4921 13.72 21.3388 13.88 21.1255 14C20.9121 14.12 20.6655 14.18 20.3855 14.18Z" fill="black"/>
</svg>
