<svg width="24" height="24" viewBox="0 0 24 24" fill="none" xmlns="http://www.w3.org/2000/svg">
<path fill-rule="evenodd" clip-rule="evenodd" d="M12 24C18.6274 24 24 18.6274 24 12C24 5.37258 18.6274 0 12 0C5.37258 0 0 5.37258 0 12C0 18.6274 5.37258 24 12 24ZM6.54545 11.8158C6.54545 8.30291 9.3853 5.45455 12.8925 5.45455V5.45739C13.0742 5.45739 13.2532 5.4659 13.4321 5.4801C13.6309 5.49714 13.7956 5.64197 13.8382 5.83508C13.8808 6.02819 13.7927 6.22698 13.6195 6.32638C12.1059 7.18401 11.0835 8.81124 11.0835 10.6799C11.0835 13.4402 13.3156 15.678 16.0674 15.678C16.3599 15.678 16.6439 15.6524 16.9222 15.6041C17.1182 15.5701 17.3141 15.6695 17.405 15.8455C17.4959 16.0216 17.459 16.2374 17.317 16.3766C16.1725 17.4898 14.6134 18.177 12.8925 18.177C9.3853 18.177 6.54545 15.3287 6.54545 11.8158Z" fill="url(#paint0_linear_121_564)"/>
<defs>
<linearGradient id="paint0_linear_121_564" x1="12" y1="0" x2="12" y2="24" gradientUnits="userSpaceOnUse">
<stop stop-color="#22C7F5"/>
<stop offset="1" stop-color="#1828B7"/>
</linearGradient>
</defs>
</svg>
