<svg width="25" height="25" viewBox="0 0 25 25" fill="none" xmlns="http://www.w3.org/2000/svg">
<path fill-rule="evenodd" clip-rule="evenodd" d="M3.57143 0C1.59898 0 0 1.59898 0 3.57143V21.4286C0 23.401 1.59898 25 3.57143 25H21.4286C23.401 25 25 23.401 25 21.4286V3.57143C25 1.59898 23.401 0 21.4286 0H3.57143ZM4.56875 20.7143H8.12359V9.26918H4.56875V20.7143ZM4.28558 5.63015C4.28558 6.76663 5.20778 7.70795 6.34426 7.70795C7.48074 7.70795 8.40293 6.76663 8.40293 5.63015C8.40293 5.08415 8.18604 4.56052 7.79996 4.17444C7.41388 3.78837 6.89025 3.57147 6.34426 3.57147C5.79826 3.57147 5.27463 3.78837 4.88856 4.17444C4.50248 4.56052 4.28558 5.08415 4.28558 5.63015ZM17.8774 20.7143H21.4284V14.4273C21.4284 11.3508 20.7665 8.98219 17.1695 8.98219C15.4399 8.98219 14.2805 9.93117 13.806 10.8304H13.7562V9.26918H10.3468V20.7143H13.8978V15.0472C13.8978 13.5549 14.181 12.1123 16.0292 12.1123C17.8506 12.1123 17.8774 13.8151 17.8774 15.1429V20.7143Z" fill="black"/>
</svg>
