<?xml version="1.0" standalone="no"?>
<!DOCTYPE svg PUBLIC "-//W3C//DTD SVG 20010904//EN"
 "http://www.w3.org/TR/2001/REC-SVG-20010904/DTD/svg10.dtd">
<svg version="1.0" xmlns="http://www.w3.org/2000/svg"
 width="512.000000pt" height="512.000000pt" viewBox="0 0 512.000000 512.000000"
 preserveAspectRatio="xMidYMid meet">

<g transform="translate(0.000000,512.000000) scale(0.100000,-0.100000)"
fill="#000000" stroke="none">
<path d="M2325 5109 c-500 -51 -945 -229 -1345 -537 -195 -150 -448 -432 -594
-662 -63 -99 -186 -351 -230 -471 -51 -139 -103 -344 -128 -504 -31 -200 -31
-550 0 -750 43 -273 114 -500 237 -750 132 -269 269 -460 489 -681 221 -220
412 -357 681 -489 250 -123 477 -194 750 -237 200 -31 550 -31 750 0 160 25
365 77 504 128 120 44 372 167 471 230 321 204 620 503 824 824 64 100 186
351 231 474 51 138 110 376 131 531 43 306 9 835 -60 938 -59 87 -200 94 -264
13 -11 -14 -36 -73 -56 -132 -155 -447 -499 -766 -950 -879 -510 -128 -1059
69 -1379 493 -502 668 -278 1619 470 1996 39 19 119 52 177 72 116 40 148 60
172 106 22 42 20 121 -3 160 -37 64 -95 85 -328 119 -99 14 -443 19 -550 8z
m80 -361 c-564 -456 -770 -1218 -511 -1895 166 -436 523 -793 959 -959 562
-215 1185 -114 1652 267 70 57 182 169 244 244 l32 40 -6 -70 c-27 -297 -103
-563 -233 -819 -262 -515 -701 -900 -1252 -1096 -236 -84 -462 -122 -730 -122
-263 0 -457 31 -703 113 -335 111 -614 284 -868 538 -361 361 -570 791 -640
1311 -17 127 -14 414 5 555 78 559 373 1085 806 1432 196 157 468 306 697 382
165 55 411 103 558 110 l30 1 -40 -32z"/>
</g>
</svg>
